<svg width="174" height="57" viewBox="0 0 174 57" fill="none" xmlns="http://www.w3.org/2000/svg">
<path d="M33.8981 33.3682C28.9761 33.3682 25.1811 29.6652 25.1811 24.9502C25.1811 20.2352 29.0451 16.5322 34.0361 16.5322C35.4621 16.5322 36.8421 16.8312 37.9231 17.2912L37.2561 21.9602C36.3361 21.4772 35.2091 21.1552 34.1281 21.1552C31.7821 21.1552 30.1031 22.7422 30.1031 24.9502C30.1031 27.1352 31.7821 28.7222 34.1511 28.7222C35.1401 28.7222 36.2901 28.4462 37.4861 27.7792L38.1531 32.4482C36.7961 33.0692 35.3011 33.3682 33.8981 33.3682ZM50.1929 33.0002L49.4569 30.3322H44.6499L43.9139 33.0002H38.8079L44.2129 16.9002H49.8939L55.2989 33.0002H50.1929ZM45.7309 26.2842H48.3759L47.0649 21.4542L45.7309 26.2842ZM61.4582 33.3682C59.2962 33.3682 57.4332 32.6782 55.8692 31.8042L56.4672 27.5032C58.3762 28.7912 60.0552 29.2972 61.3662 29.2972C62.4472 29.2972 62.7462 28.8142 62.7462 28.4002C62.7462 27.9172 62.4932 27.5262 61.1132 27.0662L60.1932 26.7672C57.4332 25.8702 56.2142 23.9842 56.2142 21.7072C56.2142 18.7632 58.4912 16.5322 62.0332 16.5322C63.5052 16.5322 65.0462 16.8772 66.8172 17.6132L66.2192 21.8452C64.4942 21.0172 63.0222 20.5572 61.9182 20.5572C61.0442 20.5572 60.7222 20.9712 60.7222 21.4312C60.7222 21.9142 61.0672 22.3052 62.2402 22.6732L63.1602 22.9722C66.3112 24.0072 67.3922 26.0312 67.3922 28.0552C67.3922 30.6312 65.6902 33.3682 61.4582 33.3682ZM78.6978 16.9002H83.4818V33.0002H78.6978V27.1122H73.9598V33.0002H69.1758V16.9002H73.9598V22.5122H78.6978V16.9002ZM95.8434 16.9002C99.5234 16.9002 102.191 19.3842 102.191 22.8112C102.191 26.2612 99.5234 28.7682 95.8434 28.7682H94.6014V33.0002H89.8174V16.9002H95.8434ZM95.2914 24.7662C96.5334 24.7662 97.4074 23.9612 97.4074 22.8112C97.4074 21.6842 96.5334 20.9022 95.2914 20.9022H94.6014V24.7662H95.2914ZM116.74 33.0002H111.197L108.391 26.9742V33.0002H103.653V16.9002H109.725C113.75 16.9002 115.843 19.0852 115.843 22.0062C115.843 24.0072 114.808 25.6172 113.037 26.4452L116.74 33.0002ZM108.391 24.1682H108.943C110.323 24.1682 111.059 23.4552 111.059 22.4202C111.059 21.3852 110.323 20.6722 108.943 20.6722H108.391V24.1682ZM122.86 16.9002V33.0002H118.076V16.9002H122.86ZM137.636 16.9002L131.909 28.4922H137.176L136.555 33.0002H124.388L130.161 21.4082H124.664L125.308 16.9002H137.636ZM143.744 28.8372H149.563L148.988 33.0002H139.029V16.9002H148.781L149.356 21.0632H143.744V22.7882H148.252V26.9512H143.744V28.8372ZM13.965 51.8372H19.784L19.209 56.0002H9.25V39.9002H19.002L19.577 44.0632H13.965V45.7882H18.473V49.9512H13.965V51.8372ZM31.6156 39.9002H36.7906L31.3856 56.0002H25.7276L20.3226 39.9002H25.4976L28.5566 50.0432L31.6156 39.9002ZM42.715 51.8372H48.534L47.959 56.0002H38V39.9002H47.752L48.327 44.0632H42.715V45.7882H47.223V49.9512H42.715V51.8372ZM63.3732 56.0002H57.8302L55.0242 49.9742V56.0002H50.2862V39.9002H56.3582C60.3832 39.9002 62.4762 42.0852 62.4762 45.0062C62.4762 47.0072 61.4412 48.6172 59.6702 49.4452L63.3732 56.0002ZM55.0242 47.1682H55.5762C56.9562 47.1682 57.6922 46.4552 57.6922 45.4202C57.6922 44.3852 56.9562 43.6722 55.5762 43.6722H55.0242V47.1682ZM77.1793 39.9002L72.1883 50.2502V56.0002H67.4043V50.2502L62.4133 39.9002H67.7263L69.7963 45.0062L71.8663 39.9002H77.1793ZM101.222 56.0002H96.3925L95.7255 48.6172L91.5165 56.0002L87.3075 48.6172L86.6405 56.0002H81.8105L83.5125 39.9002H87.8825L91.5165 46.8922L95.1505 39.9002H99.5205L101.222 56.0002ZM107.878 39.9002V56.0002H103.094V39.9002H107.878ZM120.47 39.9002H125.185V56.0002H120.746L114.927 48.0652V56.0002H110.212V39.9002H114.697L120.47 47.7432V39.9002ZM134.156 56.2992C129.924 56.2992 127.21 53.6312 127.21 49.6752V39.9002H131.994V49.4912C131.994 50.8942 132.845 51.7912 134.156 51.7912C135.467 51.7912 136.318 50.8942 136.318 49.4912V39.9002H141.102V49.7442C141.102 53.6542 138.388 56.2992 134.156 56.2992ZM154.525 44.3622H150.73V56.0002H145.946V44.3622H142.151L142.772 39.9002H153.904L154.525 44.3622ZM160.477 51.8372H166.296L165.721 56.0002H155.762V39.9002H165.514L166.089 44.0632H160.477V45.7882H164.985V49.9512H160.477V51.8372Z" fill="black"/>
<path d="M173.786 43.4692H171.819L170.991 41.5487L170.163 43.4692H168.197L169.922 39.9502H172.061L173.786 43.4692Z" fill="black"/>
<path d="M10.51 6.37012V17.9301L7.78 18.6501L2.87 13.3201V19.9401L0 20.7001V9.14012L2.75 8.42012L7.65 13.7001V7.13012L10.52 6.37012H10.51Z" fill="#D01F3C"/>
<path d="M19.0595 13.1198L18.6995 15.7798L11.7695 17.5998V6.03977L18.5395 4.25977L18.8995 6.71977L14.6395 7.83977V9.68976L18.0895 8.77977V11.3398L14.6395 12.2498V14.2798L19.0595 13.1198Z" fill="#D01F3C"/>
<path d="M34.7402 0L31.9302 12.3L29.1702 13.03L26.9502 8.12L24.7002 14.21L21.9602 14.93L19.1602 4.11L22.1802 3.31L23.7602 9.83L26.9502 1.85L30.1302 8.15L31.7202 0.79L34.7402 0Z" fill="#D01F3C"/>
</svg>
