<svg width="257" height="83" viewBox="0 0 257 83" fill="none" xmlns="http://www.w3.org/2000/svg">
<path d="M32.4592 6.37012V17.9301L29.7292 18.6501L24.8192 13.3201V19.9401L21.9492 20.7001V9.14012L24.6992 8.42012L29.5992 13.7001V7.13012L32.4692 6.37012H32.4592Z" fill="#D01F3C"/>
<path d="M41.0088 13.1198L40.6488 15.7798L33.7188 17.5998V6.03977L40.4888 4.25977L40.8488 6.71977L36.5887 7.83977V9.68976L40.0387 8.77977V11.3398L36.5887 12.2498V14.2798L41.0088 13.1198Z" fill="#D01F3C"/>
<path d="M56.6894 0L53.8794 12.3L51.1194 13.03L48.8994 8.12L46.6494 14.21L43.9094 14.93L41.1094 4.11L44.1294 3.31L45.7094 9.83L48.8994 1.85L52.0794 8.15L53.6694 0.79L56.6894 0Z" fill="#D01F3C"/>
<path d="M56.5384 39.4795C50.1184 39.4795 45.1684 34.6495 45.1684 28.4995C45.1684 22.3495 50.2084 17.5195 56.7184 17.5195C58.5784 17.5195 60.3784 17.9095 61.7884 18.5095L60.9184 24.5995C59.7184 23.9695 58.2484 23.5495 56.8384 23.5495C53.7784 23.5495 51.5884 25.6195 51.5884 28.4995C51.5884 31.3495 53.7784 33.4195 56.8684 33.4195C58.1584 33.4195 59.6584 33.0595 61.2184 32.1895L62.0884 38.2795C60.3184 39.0895 58.3684 39.4795 56.5384 39.4795ZM77.7924 38.9995L76.8324 35.5195H70.5624L69.6024 38.9995H62.9424L69.9924 17.9995H77.4024L84.4524 38.9995H77.7924ZM71.9724 30.2395H75.4224L73.7124 23.9395L71.9724 30.2395ZM92.4863 39.4795C89.6663 39.4795 87.2363 38.5795 85.1963 37.4395L85.9763 31.8295C88.4663 33.5095 90.6563 34.1695 92.3663 34.1695C93.7763 34.1695 94.1663 33.5395 94.1663 32.9995C94.1663 32.3695 93.8363 31.8595 92.0363 31.2595L90.8363 30.8695C87.2363 29.6995 85.6463 27.2395 85.6463 24.2695C85.6463 20.4295 88.6163 17.5195 93.2363 17.5195C95.1563 17.5195 97.1663 17.9695 99.4759 18.9295L98.6963 24.4495C96.4463 23.3695 94.5263 22.7695 93.0863 22.7695C91.9463 22.7695 91.5263 23.3095 91.5263 23.9095C91.5263 24.5395 91.9763 25.0495 93.5063 25.5295L94.7063 25.9195C98.8163 27.2695 100.226 29.9095 100.226 32.5495C100.226 35.9095 98.0063 39.4795 92.4863 39.4795ZM114.973 17.9995H121.213V38.9995H114.973V31.3195H108.793V38.9995H102.553V17.9995H108.793V25.3195H114.973V17.9995ZM137.337 17.9995C142.137 17.9995 145.617 21.2395 145.617 25.7095C145.617 30.2095 142.137 33.4795 137.337 33.4795H135.717V38.9995H129.477V17.9995H137.337ZM136.617 28.2595C138.237 28.2595 139.377 27.2095 139.377 25.7095C139.377 24.2395 138.237 23.2195 136.617 23.2195H135.717V28.2595H136.617ZM164.594 38.9995H157.364L153.704 31.1395V38.9995H147.524V17.9995H155.444C160.694 17.9995 163.424 20.8495 163.424 24.6595C163.424 27.2695 162.074 29.3695 159.764 30.4495L164.594 38.9995ZM153.704 27.4795H154.424C156.224 27.4795 157.184 26.5495 157.184 25.1995C157.184 23.8495 156.224 22.9195 154.424 22.9195H153.704V27.4795ZM172.576 17.9995V38.9995H166.336V17.9995H172.576ZM191.849 17.9995L184.379 33.1195H191.249L190.439 38.9995H174.569L182.099 23.8795H174.929L175.769 17.9995H191.849ZM199.816 33.5695H207.406L206.656 38.9995H193.666V17.9995H206.386L207.136 23.4295H199.816V25.6795H205.696V31.1095H199.816V33.5695ZM30.5387 59.5695H38.1287L37.3787 64.9995H24.3887V43.9995H37.1087L37.8587 49.4295H30.5387V51.6795H36.4187V57.1095H30.5387V59.5695ZM53.5611 43.9995H60.3111L53.2611 64.9995H45.8811L38.8311 43.9995H45.5811L49.5711 57.2295L53.5611 43.9995ZM68.0387 59.5695H75.6287L74.8787 64.9995H61.8887V43.9995H74.6087L75.3587 49.4295H68.0387V51.6795H73.9187V57.1095H68.0387V59.5695ZM94.9841 64.9995H87.7541L84.0941 57.1395V64.9995H77.9141V43.9995H85.8341C91.0841 43.9995 93.8141 46.8495 93.8141 50.6595C93.8141 53.2695 92.4641 55.3695 90.1541 56.4495L94.9841 64.9995ZM84.0941 53.4795H84.8141C86.6141 53.4795 87.5741 52.5495 87.5741 51.1995C87.5741 49.8495 86.6141 48.9195 84.8141 48.9195H84.0941V53.4795ZM112.992 43.9995L106.482 57.4995V64.9995H100.242V57.4995L93.732 43.9995H100.662L103.362 50.6595L106.062 43.9995H112.992ZM144.353 64.9995H138.053L137.183 55.3695L131.693 64.9995L126.203 55.3695L125.333 64.9995H119.033L121.253 43.9995H126.953L131.693 53.1195L136.433 43.9995H142.133L144.353 64.9995ZM153.035 43.9995V64.9995H146.795V43.9995H153.035ZM169.458 43.9995H175.608V64.9995H169.818L162.228 54.6495V64.9995H156.078V43.9995H161.928L169.458 54.2295V43.9995ZM187.31 65.3895C181.79 65.3895 178.25 61.9095 178.25 56.7495V43.9995H184.49V56.5095C184.49 58.3395 185.6 59.5095 187.31 59.5095C189.02 59.5095 190.13 58.3395 190.13 56.5095V43.9995H196.37V56.8395C196.37 61.9395 192.83 65.3895 187.31 65.3895ZM213.878 49.8195H208.928V64.9995H202.688V49.8195H197.738L198.548 43.9995H213.068L213.878 49.8195ZM221.642 59.5695H229.232L228.482 64.9995H215.492V43.9995H228.212L228.962 49.4295H221.642V51.6795H227.522V57.1095H221.642V59.5695Z" fill="black"/>
<path d="M237.587 49.09H235.022L233.942 46.585L232.862 49.09H230.297L232.547 44.5H235.337L237.587 49.09Z" fill="black"/>
<path d="M3.29 72.2002C5.516 72.2002 7.126 73.6842 7.126 75.7282C7.126 77.7862 5.516 79.2842 3.29 79.2842H2.478V82.0002H0V72.2002H3.29ZM3.038 77.1842C3.962 77.1842 4.634 76.5822 4.634 75.7282C4.634 74.8882 3.962 74.3002 3.038 74.3002H2.478V77.1842H3.038ZM10.7221 79.6202H14.1802L13.8301 82.0002H8.24414V72.2002H10.7221V79.6202ZM21.6564 82.0002L21.0545 79.9562H17.8064L17.2044 82.0002H14.5584L18.0024 72.2002H20.8585L24.3024 82.0002H21.6564ZM18.4365 77.8422H20.4244L19.4305 74.4962L18.4365 77.8422ZM31.7674 72.2002L28.7155 78.4162V82.0002H26.2374V78.4442L23.1855 72.2002H25.9295L27.4694 75.7422L29.0094 72.2002H31.7674ZM41.7007 72.2002H44.1367V82.0002H41.8267L37.6548 76.3862V82.0002H35.2188V72.2002H37.5427L41.7007 77.7722V72.2002ZM50.5757 82.2102C47.6357 82.2102 45.3397 79.9702 45.3397 77.1002C45.3397 74.2302 47.6357 71.9902 50.5757 71.9902C53.5157 71.9902 55.8117 74.2302 55.8117 77.1002C55.8117 79.9702 53.5157 82.2102 50.5757 82.2102ZM50.5757 79.8442C52.1017 79.8442 53.2777 78.6542 53.2777 77.1002C53.2777 75.5462 52.1017 74.3562 50.5757 74.3562C49.0497 74.3562 47.8737 75.5462 47.8737 77.1002C47.8737 78.6542 49.0497 79.8442 50.5757 79.8442ZM66.6945 72.2002H69.2565L66.8765 82.0002H64.5386L62.6485 77.3382L60.7445 82.0002H58.4205L56.0406 72.2002H58.6026L59.9465 78.0802L62.6485 72.0322L65.3505 78.0802L66.6945 72.2002ZM75.3081 74.4402V76.1482H78.052V78.3882H75.3081V82.0002H72.83V72.2002H78.402L78.7241 74.4402H75.3081ZM84.4273 82.2102C81.4873 82.2102 79.1914 79.9702 79.1914 77.1002C79.1914 74.2302 81.4873 71.9902 84.4273 71.9902C87.3673 71.9902 89.6633 74.2302 89.6633 77.1002C89.6633 79.9702 87.3673 82.2102 84.4273 82.2102ZM84.4273 79.8442C85.9533 79.8442 87.1293 78.6542 87.1293 77.1002C87.1293 75.5462 85.9533 74.3562 84.4273 74.3562C82.9013 74.3562 81.7253 75.5462 81.7253 77.1002C81.7253 78.6542 82.9013 79.8442 84.4273 79.8442ZM98.3112 82.0002H95.3992L93.3132 78.1362V82.0002H90.8633V72.2002H94.1393C96.5052 72.2002 97.7933 73.5162 97.7933 75.2942C97.7933 76.5822 97.0793 77.6042 95.8753 78.0662L98.3112 82.0002ZM93.3132 74.1882V76.8062H93.7752C94.7552 76.8062 95.3012 76.2602 95.3012 75.4902C95.3012 74.7342 94.7552 74.1882 93.7752 74.1882H93.3132ZM109.752 72.2002L106.7 78.4162V82.0002H104.222V78.4442L101.17 72.2002H103.914L105.454 75.7422L106.994 72.2002H109.752ZM114.765 82.2102C111.825 82.2102 109.529 79.9702 109.529 77.1002C109.529 74.2302 111.825 71.9902 114.765 71.9902C117.705 71.9902 120.001 74.2302 120.001 77.1002C120.001 79.9702 117.705 82.2102 114.765 82.2102ZM114.765 79.8442C116.291 79.8442 117.467 78.6542 117.467 77.1002C117.467 75.5462 116.291 74.3562 114.765 74.3562C113.239 74.3562 112.063 75.5462 112.063 77.1002C112.063 78.6542 113.239 79.8442 114.765 79.8442ZM125.163 82.1822C122.685 82.1822 121.075 80.5722 121.075 78.1782V72.2002H123.553V78.0662C123.553 79.1582 124.183 79.8442 125.163 79.8442C126.129 79.8442 126.759 79.1582 126.759 78.0662V72.2002H129.237V78.2202C129.237 80.5862 127.641 82.1822 125.163 82.1822ZM138.179 82.0002H135.267L133.181 78.1362V82.0002H130.731V72.2002H134.007C136.373 72.2002 137.661 73.5162 137.661 75.2942C137.661 76.5822 136.947 77.6042 135.743 78.0662L138.179 82.0002ZM133.181 74.1882V76.8062H133.643C134.623 76.8062 135.169 76.2602 135.169 75.4902C135.169 74.7342 134.623 74.1882 133.643 74.1882H133.181ZM146.621 82.2102C143.653 82.2102 141.357 79.9702 141.357 77.1002C141.357 74.2302 143.681 71.9902 146.691 71.9902C147.573 71.9902 148.413 72.1862 149.099 72.4942L148.735 74.9162C148.147 74.5942 147.433 74.3842 146.719 74.3842C145.109 74.3842 143.905 75.5322 143.905 77.1002C143.905 78.6542 145.109 79.8162 146.733 79.8162C147.419 79.8162 148.147 79.6062 148.875 79.1862L149.225 81.6082C148.413 82.0142 147.503 82.2102 146.621 82.2102ZM156.562 72.2002H159.04V82.0002H156.562V78.2062H152.978V82.0002H150.5V72.2002H152.978V75.8262H156.562V72.2002ZM167.084 82.0002L166.482 79.9562H163.234L162.632 82.0002H159.986L163.43 72.2002H166.286L169.73 82.0002H167.084ZM163.864 77.8422H165.852L164.858 74.4962L163.864 77.8422ZM177.162 72.2002H179.598V82.0002H177.288L173.116 76.3862V82.0002H170.68V72.2002H173.004L177.162 77.7722V72.2002ZM186.065 82.2102C183.097 82.2102 180.801 79.9702 180.801 77.1002C180.801 74.2302 183.125 71.9902 186.135 71.9902C187.017 71.9902 187.857 72.1862 188.543 72.4942L188.179 74.9162C187.591 74.5942 186.877 74.3842 186.163 74.3842C184.553 74.3842 183.349 75.5322 183.349 77.1002C183.349 78.6542 184.553 79.8162 186.177 79.8162C186.863 79.8162 187.591 79.6062 188.319 79.1862L188.669 81.6082C187.857 82.0142 186.947 82.2102 186.065 82.2102ZM192.379 79.8302H196.131L195.823 82.0002H189.943V72.2002H195.683L195.991 74.3702H192.379V75.9382H195.305V78.1082H192.379V79.8302ZM206.533 74.5102H204.097V82.0002H201.619V74.5102H199.197L199.533 72.2002H206.197L206.533 74.5102ZM211.918 82.2102C208.978 82.2102 206.682 79.9702 206.682 77.1002C206.682 74.2302 208.978 71.9902 211.918 71.9902C214.858 71.9902 217.154 74.2302 217.154 77.1002C217.154 79.9702 214.858 82.2102 211.918 82.2102ZM211.918 79.8442C213.444 79.8442 214.62 78.6542 214.62 77.1002C214.62 75.5462 213.444 74.3562 211.918 74.3562C210.392 74.3562 209.216 75.5462 209.216 77.1002C209.216 78.6542 210.392 79.8442 211.918 79.8442ZM230.908 72.2002H233.47L231.09 82.0002H228.752L226.862 77.3382L224.958 82.0002H222.634L220.254 72.2002H222.816L224.16 78.0802L226.862 72.0322L229.564 78.0802L230.908 72.2002ZM237.021 72.2002V82.0002H234.543V72.2002H237.021ZM245.179 72.2002H247.615V82.0002H245.305L241.133 76.3862V82.0002H238.697V72.2002H241.021L245.179 77.7722V72.2002ZM249.546 78.6822L249.322 75.5182V72.2002H251.8V75.5182L251.576 78.6822H249.546ZM250.568 82.1822C249.728 82.1822 249.084 81.5522 249.084 80.7542C249.084 79.9562 249.728 79.3402 250.568 79.3402C251.394 79.3402 252.052 79.9562 252.052 80.7542C252.052 81.5522 251.394 82.1822 250.568 82.1822Z" fill="#D01F3C"/>
<path d="M256.181 73.328L255.261 73.584L255.853 74.328L255.461 74.616L254.933 73.824L254.405 74.624L254.013 74.344L254.613 73.584L253.693 73.328L253.845 72.872L254.733 73.2L254.693 72.248H255.173L255.133 73.208L256.037 72.872L256.181 73.328Z" fill="#DB0007"/>
</svg>
